SplineFontDB: 3.0
FontName: Untitled1
FullName: Untitled1
FamilyName: Untitled1
Weight: Medium
Copyright: Created by Ne'meth La'szlo',,, with FontForge 2.0 (http://fontforge.sf.net)
Version: 001.000
ItalicAngle: 0
UnderlinePosition: -100
UnderlineWidth: 50
Ascent: 800
Descent: 200
sfntRevision: 0x00010000
LayerCount: 2
Layer: 0 1 "Back"  1
Layer: 1 1 "Fore"  0
NeedsXUIDChange: 1
XUID: [1021 657 1927566138 632486]
FSType: 0
OS2Version: 1
OS2_WeightWidthSlopeOnly: 0
OS2_UseTypoMetrics: 1
CreationTime: 1311810624
ModificationTime: 1314952113
PfmFamily: 17
TTFWeight: 500
TTFWidth: 5
LineGap: 90
VLineGap: 0
Panose: 2 0 6 9 0 0 0 0 0 0
OS2TypoAscent: 0
OS2TypoAOffset: 1
OS2TypoDescent: 0
OS2TypoDOffset: 1
OS2TypoLinegap: 90
OS2WinAscent: 0
OS2WinAOffset: 1
OS2WinDescent: 0
OS2WinDOffset: 1
HheadAscent: 0
HheadAOffset: 1
HheadDescent: 0
HheadDOffset: 1
OS2SubXSize: 650
OS2SubYSize: 699
OS2SubXOff: 0
OS2SubYOff: 140
OS2SupXSize: 650
OS2SupYSize: 699
OS2SupXOff: 0
OS2SupYOff: 479
OS2StrikeYSize: 49
OS2StrikeYPos: 258
OS2Vendor: 'PfEd'
OS2CodePages: 00000001.00000000
OS2UnicodeRanges: 00000000.00008000.00000000.00000000
DEI: 91125
ShortTable: cvt  2
  33
  633
EndShort
ShortTable: maxp 16
  1
  0
  20
  133
  3
  0
  0
  2
  0
  1
  1
  0
  64
  46
  0
  0
EndShort
LangName: 1033 "Created by N+AOkA-meth L+AOEA-szl+APMA,,, with FontForge 2.0 (http://fontforge.sf.net)" "" "" "FontForge : Untitled1 : 28-7-2011" 
GaspTable: 1 65535 2
Encoding: UnicodeBmp
UnicodeInterp: none
NameList: Adobe Glyph List
DisplaySize: -24
AntiAlias: 1
FitToEm: 1
WinInfo: 57717 53 16
BeginChars: 65539 31

StartChar: .notdef
Encoding: 65536 -1 0
Width: 635
Flags: W
LayerCount: 2
Fore
SplineSet
33 0 m 1,0,-1
 33 666 l 1,1,-1
 298 666 l 1,2,-1
 298 0 l 1,3,-1
 33 0 l 1,0,-1
66 33 m 1,4,-1
 265 33 l 1,5,-1
 265 633 l 1,6,-1
 66 633 l 1,7,-1
 66 33 l 1,4,-1
EndSplineSet
EndChar

StartChar: Uhungarumlaut
Encoding: 368 368 3
Width: 661
Flags: W
LayerCount: 2
Fore
SplineSet
504 792 m 0,0,1
 504 779 504 779 497 772 c 2,2,-1
 398 688 l 2,3,4
 395 685 395 685 390 685 c 0,5,6
 386 685 386 685 381.5 688.5 c 128,-1,7
 377 692 377 692 377 698 c 0,8,9
 377 702 377 702 381 709 c 2,10,-1
 440 818 l 1,11,12
 448 830 448 830 463 830 c 0,13,14
 483 830 483 830 493.5 818 c 128,-1,15
 504 806 504 806 504 792 c 0,0,1
373 797 m 0,16,17
 373 784 373 784 366 778 c 2,18,-1
 278 698 l 2,19,20
 270 690 270 690 264 690 c 0,21,22
 251 690 251 690 251 702 c 0,23,24
 251 708 251 708 254 713 c 2,25,-1
 308 823 l 1,26,27
 316 835 316 835 335 835 c 0,28,29
 348 835 348 835 360.5 824 c 128,-1,30
 373 813 373 813 373 797 c 0,16,17
172 523 m 2,31,-1
 172 269 l 2,32,33
 172 227 172 227 174 200 c 128,-1,34
 176 173 176 173 188 138 c 128,-1,35
 200 103 200 103 223 81 c 0,36,37
 275 31 275 31 342 31 c 0,38,39
 391 31 391 31 426 46.5 c 128,-1,40
 461 62 461 62 480 84.5 c 128,-1,41
 499 107 499 107 510 142.5 c 128,-1,42
 521 178 521 178 523.5 207.5 c 128,-1,43
 526 237 526 237 526 277 c 2,44,-1
 526 523 l 2,45,46
 526 555 526 555 523 571.5 c 128,-1,47
 520 588 520 588 507 597 c 128,-1,48
 494 606 494 606 481 608.5 c 128,-1,49
 468 611 468 611 434 614 c 1,50,51
 430 618 430 618 430 630 c 128,-1,52
 430 642 430 642 434 647 c 1,53,54
 534 645 534 645 550 645 c 0,55,56
 554 645 554 645 652 647 c 1,57,58
 656 642 656 642 656 630 c 128,-1,59
 656 618 656 618 652 614 c 1,60,61
 616 610 616 610 603.5 605.5 c 128,-1,62
 591 601 591 601 583 582.5 c 128,-1,63
 575 564 575 564 575 523 c 2,64,-1
 575 295 l 2,65,66
 575 224 575 224 564 171.5 c 128,-1,67
 553 119 553 119 525.5 76.5 c 128,-1,68
 498 34 498 34 447 12 c 128,-1,69
 396 -10 396 -10 321 -10 c 0,70,71
 282 -10 282 -10 245.5 0.5 c 128,-1,72
 209 11 209 11 171 36 c 128,-1,73
 133 61 133 61 110 112.5 c 128,-1,74
 87 164 87 164 87 236 c 2,75,-1
 87 523 l 2,76,77
 87 582 87 582 72.5 597 c 128,-1,78
 58 612 58 612 10 614 c 1,79,80
 6 618 6 618 6 630 c 128,-1,81
 6 642 6 642 10 647 c 1,82,83
 110 645 110 645 129 645 c 0,84,85
 166 645 166 645 264 647 c 1,86,87
 268 642 268 642 268 630 c 128,-1,88
 268 618 268 618 264 614 c 1,89,90
 204 612 204 612 188 597.5 c 128,-1,91
 172 583 172 583 172 523 c 2,31,-1
EndSplineSet
EndChar

StartChar: l.superior
Encoding: 737 737 4
Width: 161
Flags: W
LayerCount: 2
Fore
SplineSet
55 450 m 2,0,-1
 55 651 l 2,1,2
 55 685 55 685 49 692.5 c 128,-1,3
 43 700 43 700 22 701 c 0,4,5
 17 701 17 701 15 701 c 1,6,7
 9 707 9 707 12 722 c 1,8,9
 64 726 64 726 98 739 c 1,10,11
 106 739 106 739 106 733 c 0,12,13
 104 707 104 707 104 667 c 2,14,-1
 104 450 l 2,15,16
 104 412 104 412 111 404 c 1,17,18
 120 396 120 396 144 393 c 1,19,20
 147 390 147 390 147 379 c 128,-1,21
 147 368 147 368 144 365 c 1,22,23
 122 366 122 366 80 366 c 0,24,25
 36 366 36 366 15 365 c 1,26,27
 12 368 12 368 12 379 c 128,-1,28
 12 390 12 390 15 393 c 1,29,30
 41 395 41 395 48 404 c 128,-1,31
 55 413 55 413 55 450 c 2,0,-1
EndSplineSet
EndChar

StartChar: e.superior
Encoding: 7497 7497 5
Width: 291
Flags: W
LayerCount: 2
Fore
SplineSet
157 394 m 0,0,1
 210 394 210 394 244 433 c 1,2,3
 258 433 258 433 264 417 c 1,4,5
 244 391 244 391 212 375 c 128,-1,6
 180 359 180 359 146 359 c 0,7,8
 94 359 94 359 65 384 c 0,9,10
 27 418 27 418 27 492 c 0,11,12
 27 552 27 552 61.5 594.5 c 128,-1,13
 96 637 96 637 157 637 c 0,14,15
 216 637 216 637 238.5 602 c 128,-1,16
 261 567 261 567 262 506 c 1,17,-1
 82 508 l 1,18,19
 81 504 81 504 81 497 c 0,20,21
 81 453 81 453 97 428 c 0,22,23
 120 394 120 394 157 394 c 0,0,1
205 537 m 1,24,25
 205 612 205 612 148 612 c 0,26,27
 127 612 127 612 108 589 c 128,-1,28
 89 566 89 566 85 536 c 1,29,-1
 205 537 l 1,24,25
EndSplineSet
EndChar

StartChar: uni2731
Encoding: 10033 10033 6
Width: 635
Flags: W
LayerCount: 2
Fore
SplineSet
290 301 m 1,0,1
 260 308 260 308 217 308 c 0,2,3
 78 308 78 308 78 372 c 0,4,5
 78 393 78 393 91.5 408.5 c 128,-1,6
 105 424 105 424 134 424 c 0,7,8
 167 424 167 424 218 386 c 128,-1,9
 269 348 269 348 300 336 c 1,10,11
 297 370 297 370 278.5 421 c 128,-1,12
 260 472 260 472 260 494 c 0,13,14
 260 522 260 522 275 542 c 128,-1,15
 290 562 290 562 312 562 c 0,16,17
 369 562 369 562 369 501 c 0,18,19
 369 477 369 477 353.5 417.5 c 128,-1,20
 338 358 338 358 336 334 c 1,21,22
 369 348 369 348 419 386 c 128,-1,23
 469 424 469 424 500 424 c 128,-1,24
 531 424 531 424 545 406.5 c 128,-1,25
 559 389 559 389 559 372 c 0,26,27
 559 308 559 308 440 308 c 0,28,29
 386 308 386 308 345 301 c 1,30,31
 366 279 366 279 405.5 252 c 128,-1,32
 445 225 445 225 466.5 203.5 c 128,-1,33
 488 182 488 182 488 151 c 0,34,35
 488 129 488 129 472.5 115 c 128,-1,36
 457 101 457 101 438 101 c 0,37,38
 409 101 409 101 389 128.5 c 128,-1,39
 369 156 369 156 349 207 c 128,-1,40
 329 258 329 258 316 281 c 1,41,42
 303 258 303 258 282.5 204.5 c 128,-1,43
 262 151 262 151 243 126 c 128,-1,44
 224 101 224 101 195 101 c 0,45,46
 174 101 174 101 159.5 115 c 128,-1,47
 145 129 145 129 145 150 c 0,48,49
 145 182 145 182 167.5 204.5 c 128,-1,50
 190 227 190 227 229.5 252 c 128,-1,51
 269 277 269 277 290 301 c 1,0,1
EndSplineSet
EndChar

StartChar: uniE17D
Encoding: 57725 57725 7
Width: 194
Flags: W
LayerCount: 2
Fore
SplineSet
128 440 m 2,0,1
 128 412 128 412 139 404 c 128,-1,2
 150 396 150 396 179 394 c 1,3,4
 187 379 187 379 179 365 c 1,5,6
 149 366 149 366 103 366 c 128,-1,7
 57 366 57 366 27 365 c 1,8,9
 18 379 18 379 27 394 c 1,10,11
 59 396 59 396 69.5 403.5 c 128,-1,12
 80 411 80 411 80 440 c 2,13,-1
 80 549 l 2,14,15
 80 559 80 559 79 566.5 c 128,-1,16
 78 574 78 574 78 579 c 128,-1,17
 78 584 78 584 74.5 587.5 c 128,-1,18
 71 591 71 591 70.5 593 c 128,-1,19
 70 595 70 595 64 596 c 128,-1,20
 58 597 58 597 57.5 597.5 c 128,-1,21
 57 598 57 598 48 598.5 c 128,-1,22
 39 599 39 599 37 599 c 1,23,24
 31 607 31 607 33 620 c 1,25,26
 94 625 94 625 122 637 c 1,27,28
 130 637 130 637 130 630 c 0,29,30
 128 603 128 603 128 576 c 2,31,-1
 128 440 l 2,0,1
EndSplineSet
EndChar

StartChar: uniE1B4
Encoding: 57780 57780 8
Width: 423
Flags: W
LayerCount: 2
Fore
SplineSet
72 417 m 2,0,-1
 72 569 l 1,1,-1
 30 569 l 2,2,3
 27 569 27 569 27 572 c 2,4,-1
 27 586 l 2,5,6
 27 598 27 598 41 598 c 2,7,-1
 72 598 l 1,8,9
 72 680 72 680 114 714 c 0,10,11
 145 739 145 739 207 739 c 0,12,13
 238 739 238 739 261 722 c 0,14,15
 272 715 272 715 276 706 c 1,16,17
 306 739 306 739 347 739 c 0,18,19
 378 739 378 739 401 722 c 0,20,21
 421 708 421 708 421 691 c 0,22,23
 421 682 421 682 414 675 c 128,-1,24
 407 668 407 668 398 668 c 0,25,26
 380 668 380 668 371 687 c 1,27,28
 360 714 360 714 335 714 c 0,29,30
 291 714 291 714 291 608 c 2,31,-1
 291 598 l 1,32,-1
 359 598 l 2,33,34
 364 598 364 598 364 595 c 2,35,-1
 364 577 l 2,36,37
 364 569 364 569 350 569 c 2,38,-1
 291 569 l 1,39,-1
 291 417 l 2,40,41
 291 391 291 391 317 389 c 2,42,-1
 338 387 l 2,43,44
 343 387 343 387 343 382 c 2,45,-1
 343 365 l 1,46,-1
 342 364 l 1,47,48
 276 365 276 365 264 365 c 2,49,-1
 206 364 l 1,50,-1
 204 365 l 1,51,-1
 204 382 l 2,52,53
 204 386 204 386 209 387 c 2,54,-1
 221 389 l 2,55,56
 229 390 229 390 236 398 c 1,57,58
 242 403 242 403 242 417 c 2,59,-1
 242 569 l 1,60,-1
 233 569 l 1,61,-1
 200 569 l 1,62,-1
 121 569 l 1,63,-1
 121 417 l 2,64,65
 121 391 121 391 140 389 c 2,66,-1
 156 387 l 2,67,68
 161 386 161 386 161 382 c 2,69,-1
 161 365 l 1,70,-1
 160 364 l 1,71,72
 100 365 100 365 94 365 c 2,73,-1
 31 364 l 1,74,-1
 29 365 l 1,75,-1
 29 382 l 2,76,77
 29 386 29 386 34 387 c 2,78,-1
 46 389 l 2,79,80
 60 391 60 391 66 398 c 1,81,82
 72 403 72 403 72 417 c 2,0,-1
253 668 m 1,83,84
 239 671 239 671 231 687 c 1,85,86
 220 714 220 714 195 714 c 0,87,88
 121 714 121 714 121 608 c 2,89,-1
 121 598 l 1,90,-1
 211 598 l 1,91,-1
 228 598 l 1,92,-1
 242 598 l 1,93,94
 242 639 242 639 253 668 c 1,83,84
EndSplineSet
EndChar

StartChar: uniE1B5
Encoding: 57781 57781 9
Width: 365
Flags: W
LayerCount: 2
Fore
SplineSet
72 421 m 2,0,-1
 72 579 l 1,1,-1
 30 579 l 2,2,3
 27 579 27 579 27 582 c 2,4,-1
 27 596 l 2,5,6
 27 608 27 608 41 608 c 2,7,-1
 72 608 l 1,8,9
 72 690 72 690 114 724 c 0,10,11
 145 749 145 749 207 749 c 0,12,13
 248 749 248 749 271 732 c 0,14,15
 291 718 291 718 291 701 c 0,16,17
 291 692 291 692 284 685 c 128,-1,18
 277 678 277 678 268 678 c 0,19,20
 250 678 250 678 241 697 c 1,21,22
 230 724 230 724 195 724 c 0,23,24
 121 724 121 724 121 618 c 2,25,-1
 121 608 l 1,26,-1
 193 607 l 1,27,28
 261 612 261 612 292 626 c 1,29,30
 300 626 300 626 300 619 c 0,31,32
 298 592 298 592 298 565 c 2,33,-1
 298 440 l 2,34,35
 298 412 298 412 309 404 c 128,-1,36
 320 396 320 396 349 394 c 1,37,38
 357 379 357 379 349 365 c 1,39,40
 319 366 319 366 276.5 366 c 128,-1,41
 234 366 234 366 204 365 c 1,42,43
 195 379 195 379 204 394 c 1,44,45
 236 396 236 396 243 403.5 c 128,-1,46
 250 411 250 411 250 440 c 2,47,-1
 250 529 l 2,48,49
 250 539 250 539 249 546.5 c 128,-1,50
 248 554 248 554 248 559 c 128,-1,51
 248 564 248 564 244.5 567.5 c 128,-1,52
 241 571 241 571 240.5 573 c 128,-1,53
 240 575 240 575 234 576 c 0,54,55
 230 577 230 577 228 577 c 2,56,-1
 121 579 l 1,57,-1
 121 421 l 2,58,59
 121 395 121 395 135 393 c 2,60,-1
 151 391 l 2,61,62
 156 390 156 390 156 386 c 2,63,-1
 156 365 l 1,64,-1
 155 364 l 1,65,66
 98 365 98 365 94 365 c 2,67,-1
 31 364 l 1,68,-1
 29 365 l 1,69,-1
 29 386 l 2,70,71
 29 390 29 390 34 391 c 2,72,-1
 46 393 l 2,73,74
 60 395 60 395 66 402 c 1,75,76
 72 407 72 407 72 421 c 2,0,-1
EndSplineSet
EndChar

StartChar: uniE1B6
Encoding: 57782 57782 10
Width: 358
Flags: W
LayerCount: 2
Fore
SplineSet
249 440 m 2,0,-1
 249 651 l 2,1,2
 249 661 249 661 248 670 c 1,3,4
 237 674 237 674 231 687 c 0,5,6
 220 714 220 714 195 714 c 0,7,8
 121 714 121 714 121 608 c 2,9,-1
 121 598 l 1,10,-1
 189 598 l 2,11,12
 194 598 194 598 194 595 c 2,13,-1
 194 577 l 2,14,15
 194 569 194 569 180 569 c 2,16,-1
 121 569 l 1,17,-1
 121 417 l 1,18,19
 121 417 121 417 121 414 c 0,20,21
 122 392 122 392 142 389 c 2,22,-1
 158 387 l 2,23,24
 163 386 163 386 163 382 c 2,25,-1
 163 365 l 1,26,-1
 162 364 l 1,27,28
 102 365 102 365 94 365 c 2,29,-1
 31 364 l 1,30,-1
 29 365 l 1,31,-1
 29 382 l 2,32,33
 29 386 29 386 34 387 c 2,34,-1
 46 389 l 2,35,36
 60 391 60 391 66 398 c 1,37,38
 72 403 72 403 72 417 c 2,39,-1
 72 569 l 1,40,-1
 30 569 l 2,41,42
 27 569 27 569 27 572 c 2,43,-1
 27 586 l 2,44,45
 27 598 27 598 41 598 c 2,46,-1
 72 598 l 1,47,48
 72 680 72 680 114 714 c 0,49,50
 145 739 145 739 207 739 c 0,51,52
 232 739 232 739 252 728 c 1,53,54
 274 732 274 732 292 739 c 1,55,56
 300 739 300 739 300 733 c 0,57,58
 298 707 298 707 298 667 c 2,59,-1
 298 440 l 2,60,61
 298 403 298 403 305 395 c 128,-1,62
 312 387 312 387 338 385 c 1,63,64
 341 382 341 382 341 374 c 128,-1,65
 341 366 341 366 338 363 c 1,66,67
 316 364 316 364 274 364 c 0,68,69
 230 364 230 364 209 363 c 1,70,71
 206 366 206 366 206 373 c 128,-1,72
 206 380 206 380 209 383 c 1,73,74
 235 385 235 385 242 394 c 128,-1,75
 249 403 249 403 249 440 c 2,0,-1
EndSplineSet
EndChar

StartChar: uniE1B7
Encoding: 57783 57783 11
Width: 534
Flags: W
LayerCount: 2
Fore
SplineSet
72 417 m 2,0,-1
 72 579 l 1,1,-1
 30 579 l 2,2,3
 27 579 27 579 27 582 c 2,4,-1
 27 596 l 2,5,6
 27 608 27 608 41 608 c 2,7,-1
 72 608 l 1,8,9
 72 690 72 690 114 724 c 0,10,11
 145 749 145 749 207 749 c 0,12,13
 238 749 238 749 261 732 c 0,14,15
 275 721 275 721 276 717 c 1,16,17
 280 721 280 721 284 724 c 0,18,19
 315 749 315 749 377 749 c 0,20,21
 418 749 418 749 441 732 c 0,22,23
 461 718 461 718 461 701 c 0,24,25
 461 692 461 692 454 685 c 128,-1,26
 447 678 447 678 438 678 c 0,27,28
 420 678 420 678 411 697 c 1,29,30
 400 724 400 724 365 724 c 0,31,32
 291 724 291 724 291 618 c 2,33,-1
 291 608 l 1,34,-1
 359 608 l 2,35,36
 362 608 362 608 363 607 c 1,37,38
 431 612 431 612 462 626 c 1,39,40
 470 626 470 626 470 619 c 0,41,42
 468 592 468 592 468 565 c 2,43,-1
 468 440 l 2,44,45
 468 412 468 412 479 404 c 128,-1,46
 490 396 490 396 519 394 c 1,47,48
 527 379 527 379 519 365 c 1,49,50
 489 366 489 366 446.5 366 c 128,-1,51
 404 366 404 366 374 365 c 1,52,53
 365 379 365 379 374 394 c 1,54,55
 406 396 406 396 413 403.5 c 128,-1,56
 420 411 420 411 420 440 c 2,57,-1
 420 529 l 2,58,59
 420 539 420 539 419 546.5 c 128,-1,60
 418 554 418 554 418 559 c 128,-1,61
 418 564 418 564 414.5 567.5 c 128,-1,62
 411 571 411 571 410.5 573 c 128,-1,63
 410 575 410 575 404 576 c 0,64,65
 400 577 400 577 398 577 c 2,66,-1
 291 579 l 1,67,-1
 291 421 l 1,68,-1
 291 417 l 2,69,70
 291 390 291 390 305 389 c 2,71,-1
 326 387 l 2,72,73
 331 387 331 387 331 382 c 2,74,-1
 331 365 l 1,75,-1
 330 364 l 1,76,77
 270 365 270 365 264 365 c 2,78,-1
 206 364 l 1,79,-1
 204 365 l 1,80,-1
 204 382 l 2,81,82
 204 386 204 386 209 387 c 2,83,-1
 221 389 l 2,84,85
 229 390 229 390 236 398 c 1,86,87
 242 403 242 403 242 417 c 2,88,-1
 242 579 l 1,89,-1
 233 579 l 1,90,-1
 200 579 l 1,91,-1
 121 579 l 1,92,-1
 121 417 l 2,93,94
 121 391 121 391 140 389 c 2,95,-1
 156 387 l 2,96,97
 161 386 161 386 161 382 c 2,98,-1
 161 365 l 1,99,-1
 160 364 l 1,100,101
 100 365 100 365 94 365 c 2,102,-1
 31 364 l 1,103,-1
 29 365 l 1,104,-1
 29 382 l 2,105,106
 29 386 29 386 34 387 c 2,107,-1
 46 389 l 2,108,109
 60 391 60 391 66 398 c 1,110,111
 72 403 72 403 72 417 c 2,0,-1
242 608 m 1,112,113
 242 649 242 649 253 678 c 1,114,115
 239 681 239 681 231 697 c 1,116,117
 220 724 220 724 195 724 c 0,118,119
 121 724 121 724 121 618 c 2,120,-1
 121 608 l 1,121,-1
 211 608 l 1,122,-1
 228 608 l 1,123,-1
 242 608 l 1,112,113
EndSplineSet
EndChar

StartChar: uniE1B8
Encoding: 57784 57784 12
Width: 528
Flags: W
LayerCount: 2
Fore
SplineSet
72 417 m 2,0,-1
 72 569 l 1,1,-1
 30 569 l 2,2,3
 27 569 27 569 27 572 c 2,4,-1
 27 586 l 2,5,6
 27 598 27 598 41 598 c 2,7,-1
 72 598 l 1,8,9
 72 680 72 680 114 714 c 0,10,11
 145 739 145 739 207 739 c 0,12,13
 238 739 238 739 261 722 c 0,14,15
 271 715 271 715 276 707 c 1,16,-1
 278 709 l 2,17,18
 284 715 284 715 288 717 c 0,19,20
 319 739 319 739 377 739 c 0,21,22
 402 739 402 739 422 728 c 1,23,24
 444 732 444 732 462 739 c 1,25,26
 470 739 470 739 470 733 c 0,27,28
 468 707 468 707 468 667 c 2,29,-1
 468 440 l 2,30,31
 468 403 468 403 475 395 c 128,-1,32
 482 387 482 387 508 385 c 1,33,34
 511 382 511 382 511 374 c 128,-1,35
 511 366 511 366 508 363 c 1,36,37
 486 364 486 364 444 364 c 0,38,39
 400 364 400 364 379 363 c 1,40,41
 376 366 376 366 376 373 c 128,-1,42
 376 380 376 380 379 383 c 1,43,44
 405 385 405 385 412 394 c 128,-1,45
 419 403 419 403 419 440 c 2,46,-1
 419 651 l 2,47,48
 419 661 419 661 418 670 c 1,49,50
 407 674 407 674 401 687 c 0,51,52
 390 714 390 714 365 714 c 0,53,54
 291 714 291 714 291 608 c 2,55,-1
 291 598 l 1,56,-1
 359 598 l 2,57,58
 364 598 364 598 364 595 c 2,59,-1
 364 577 l 2,60,61
 364 569 364 569 350 569 c 2,62,-1
 291 569 l 1,63,-1
 291 417 l 2,64,65
 291 415 291 415 291 414 c 0,66,67
 292 392 292 392 312 389 c 2,68,-1
 328 387 l 2,69,70
 333 386 333 386 333 382 c 2,71,-1
 333 365 l 1,72,-1
 332 364 l 1,73,74
 272 365 272 365 264 365 c 2,75,-1
 201 364 l 1,76,-1
 199 365 l 1,77,-1
 199 382 l 2,78,79
 199 386 199 386 204 387 c 2,80,-1
 216 389 l 2,81,82
 230 391 230 391 236 398 c 1,83,84
 242 403 242 403 242 417 c 2,85,-1
 242 569 l 1,86,-1
 233 569 l 1,87,-1
 200 569 l 1,88,-1
 121 569 l 1,89,-1
 121 417 l 2,90,91
 121 391 121 391 140 389 c 2,92,-1
 156 387 l 2,93,94
 161 386 161 386 161 382 c 2,95,-1
 161 365 l 1,96,-1
 160 364 l 1,97,98
 100 365 100 365 94 365 c 2,99,-1
 31 364 l 1,100,-1
 29 365 l 1,101,-1
 29 382 l 2,102,103
 29 386 29 386 34 387 c 2,104,-1
 46 389 l 2,105,106
 60 391 60 391 66 398 c 1,107,108
 72 403 72 403 72 417 c 2,0,-1
253 668 m 1,109,110
 239 671 239 671 231 687 c 1,111,112
 220 714 220 714 195 714 c 0,113,114
 121 714 121 714 121 608 c 2,115,-1
 121 598 l 1,116,-1
 211 598 l 1,117,-1
 228 598 l 1,118,-1
 242 598 l 1,119,120
 242 639 242 639 253 668 c 1,109,110
EndSplineSet
EndChar

StartChar: uniE1B9
Encoding: 57785 57785 13
Width: 365
Flags: W
LayerCount: 2
Fore
SplineSet
72 421 m 2,0,-1
 72 579 l 1,1,-1
 30 579 l 2,2,3
 27 579 27 579 27 582 c 2,4,-1
 27 596 l 2,5,6
 27 608 27 608 41 608 c 2,7,-1
 72 608 l 1,8,9
 72 690 72 690 114 724 c 0,10,11
 145 749 145 749 207 749 c 0,12,13
 248 749 248 749 271 732 c 0,14,15
 291 718 291 718 291 701 c 0,16,17
 291 692 291 692 284 685 c 128,-1,18
 277 678 277 678 268 678 c 0,19,20
 250 678 250 678 241 697 c 1,21,22
 230 724 230 724 195 724 c 0,23,24
 121 724 121 724 121 618 c 2,25,-1
 121 608 l 1,26,-1
 193 607 l 1,27,28
 264 612 264 612 295 626 c 1,29,30
 303 626 303 626 303 619 c 0,31,32
 301 598 301 598 301 576 c 0,33,34
 301 570 301 570 301 565 c 2,35,-1
 301 440 l 1,36,-1
 301 430 l 2,37,38
 301 365 301 365 295 337.5 c 128,-1,39
 289 310 289 310 269 288 c 0,40,41
 247 263 247 263 217 263 c 0,42,43
 195 263 195 263 175.5 272.5 c 128,-1,44
 156 282 156 282 156 296 c 0,45,46
 156 321 156 321 177 321 c 256,47,48
 198 321 198 321 204 292 c 0,49,50
 206 282 206 282 214 282 c 0,51,52
 235 282 235 282 243.5 310.5 c 128,-1,53
 252 339 252 339 252 410 c 1,54,-1
 250 529 l 2,55,56
 249 539 249 539 249 546 c 0,57,58
 248 570 248 570 234 576 c 0,59,60
 231 577 231 577 228 577 c 2,61,-1
 121 579 l 1,62,-1
 121 421 l 2,63,64
 121 396 121 396 142 393 c 2,65,-1
 158 391 l 2,66,67
 163 390 163 390 163 386 c 2,68,-1
 163 365 l 1,69,-1
 162 364 l 1,70,71
 102 365 102 365 94 365 c 2,72,-1
 31 364 l 1,73,-1
 29 365 l 1,74,-1
 29 386 l 2,75,76
 29 390 29 390 34 391 c 2,77,-1
 46 393 l 2,78,79
 60 395 60 395 66 402 c 1,80,81
 72 407 72 407 72 421 c 2,0,-1
EndSplineSet
EndChar

StartChar: uniE1BA
Encoding: 57786 57786 14
Width: 534
Flags: W
LayerCount: 2
Fore
SplineSet
72 417 m 2,0,-1
 72 579 l 1,1,-1
 30 579 l 2,2,3
 27 579 27 579 27 582 c 2,4,-1
 27 596 l 2,5,6
 27 608 27 608 41 608 c 2,7,-1
 72 608 l 1,8,9
 72 690 72 690 114 724 c 0,10,11
 145 749 145 749 207 749 c 0,12,13
 238 749 238 749 261 732 c 0,14,15
 275 721 275 721 276 717 c 1,16,17
 280 721 280 721 284 724 c 0,18,19
 315 749 315 749 377 749 c 0,20,21
 418 749 418 749 441 732 c 0,22,23
 461 718 461 718 461 701 c 0,24,25
 461 692 461 692 454 685 c 128,-1,26
 447 678 447 678 438 678 c 0,27,28
 420 678 420 678 411 697 c 1,29,30
 400 724 400 724 365 724 c 0,31,32
 291 724 291 724 291 618 c 2,33,-1
 291 608 l 1,34,-1
 359 608 l 2,35,36
 362 608 362 608 363 607 c 1,37,38
 434 612 434 612 465 626 c 1,39,40
 473 626 473 626 473 619 c 0,41,42
 471 598 471 598 471 576 c 0,43,44
 471 570 471 570 471 565 c 2,45,-1
 471 440 l 1,46,-1
 471 430 l 2,47,48
 471 365 471 365 465 337.5 c 128,-1,49
 459 310 459 310 439 288 c 0,50,51
 417 263 417 263 387 263 c 0,52,53
 365 263 365 263 345.5 272.5 c 128,-1,54
 326 282 326 282 326 296 c 0,55,56
 326 321 326 321 347 321 c 256,57,58
 368 321 368 321 374 292 c 0,59,60
 376 282 376 282 384 282 c 0,61,62
 405 282 405 282 413.5 310.5 c 128,-1,63
 422 339 422 339 422 410 c 1,64,-1
 420 529 l 2,65,66
 419 539 419 539 419 546 c 0,67,68
 418 570 418 570 404 576 c 0,69,70
 401 577 401 577 398 577 c 2,71,-1
 291 579 l 1,72,-1
 291 421 l 2,73,74
 291 396 291 396 312 393 c 2,75,-1
 328 391 l 2,76,77
 333 390 333 390 333 386 c 2,78,-1
 333 365 l 1,79,-1
 332 364 l 1,80,-1
 330 364 l 1,81,82
 277 365 277 365 266 365 c 0,83,84
 265 365 265 365 264.5 365 c 128,-1,85
 264 365 264 365 264 365 c 1,86,-1
 206 364 l 1,87,-1
 201 364 l 1,88,-1
 199 365 l 1,89,-1
 199 386 l 2,90,91
 199 390 199 390 204 391 c 2,92,-1
 216 393 l 2,93,94
 230 395 230 395 236 402 c 1,95,96
 242 407 242 407 242 421 c 2,97,-1
 242 579 l 1,98,-1
 233 579 l 1,99,-1
 200 579 l 1,100,-1
 121 579 l 1,101,-1
 121 417 l 2,102,103
 121 391 121 391 140 389 c 2,104,-1
 156 387 l 2,105,106
 161 386 161 386 161 382 c 2,107,-1
 161 365 l 1,108,-1
 160 364 l 1,109,110
 100 365 100 365 94 365 c 2,111,-1
 31 364 l 1,112,-1
 29 365 l 1,113,-1
 29 382 l 2,114,115
 29 386 29 386 34 387 c 2,116,-1
 46 389 l 2,117,118
 60 391 60 391 66 398 c 1,119,120
 72 403 72 403 72 417 c 2,0,-1
253 678 m 1,121,122
 239 681 239 681 231 697 c 1,123,124
 220 724 220 724 195 724 c 0,125,126
 121 724 121 724 121 618 c 2,127,-1
 121 608 l 1,128,-1
 211 608 l 1,129,-1
 228 608 l 1,130,-1
 242 608 l 1,131,132
 242 649 242 649 253 678 c 1,121,122
EndSplineSet
EndChar

StartChar: uniE1BB
Encoding: 57787 57787 15
Width: 457
Flags: W
LayerCount: 2
Fore
SplineSet
192 502 m 1,0,1
 129 486 129 486 106 470.5 c 128,-1,2
 83 455 83 455 83 431 c 0,3,4
 83 390 83 390 128 390 c 0,5,6
 155 390 155 390 192 423 c 1,7,-1
 192 492 l 1,8,-1
 192 502 l 1,0,1
370 537 m 1,9,10
 370 612 370 612 313 612 c 0,11,12
 292 612 292 612 273 589 c 128,-1,13
 254 566 254 566 250 536 c 1,14,-1
 370 537 l 1,9,10
322 394 m 0,15,16
 375 394 375 394 409 433 c 1,17,18
 423 433 423 433 429 417 c 1,19,20
 409 391 409 391 377 375 c 128,-1,21
 345 359 345 359 311 359 c 0,22,23
 259 359 259 359 230 384 c 0,24,25
 218 395 218 395 209 411 c 1,26,27
 193 397 193 397 193 397 c 2,28,29
 167 374 167 374 149.5 366 c 128,-1,30
 132 358 132 358 108 358 c 0,31,32
 76 358 76 358 53.5 377.5 c 128,-1,33
 31 397 31 397 31 428 c 0,34,35
 31 487 31 487 134 514 c 2,36,-1
 192 529 l 1,37,38
 192 612 192 612 138 612 c 0,39,40
 113 612 113 612 98.5 604.5 c 128,-1,41
 84 597 84 597 84 585 c 0,42,43
 84 576 84 576 86 572 c 128,-1,44
 88 568 88 568 88 560 c 0,45,46
 88 553 88 553 81.5 546 c 128,-1,47
 75 539 75 539 62 539 c 0,48,49
 51 539 51 539 43.5 546 c 128,-1,50
 36 553 36 553 36 564 c 0,51,52
 36 592 36 592 71 614.5 c 128,-1,53
 106 637 106 637 140 637 c 0,54,55
 203 637 203 637 228 597 c 1,56,57
 263 637 263 637 322 637 c 256,58,59
 381 637 381 637 403.5 602 c 128,-1,60
 426 567 426 567 427 506 c 1,61,-1
 247 508 l 1,62,63
 246 504 246 504 246 497 c 0,64,65
 246 453 246 453 262 428 c 0,66,67
 285 394 285 394 322 394 c 0,15,16
EndSplineSet
EndChar

StartChar: uniE1BC
Encoding: 57788 57788 16
Width: 492
Flags: W
LayerCount: 2
Fore
SplineSet
222 475 m 0,0,1
 222 534 222 534 200 573 c 128,-1,2
 178 612 178 612 146 612 c 0,3,4
 118 612 118 612 100 585.5 c 128,-1,5
 82 559 82 559 82 503 c 128,-1,6
 82 447 82 447 105.5 415.5 c 128,-1,7
 129 384 129 384 162 384 c 0,8,9
 186 384 186 384 204 408 c 128,-1,10
 222 432 222 432 222 475 c 0,0,1
152 637 m 0,11,12
 216 637 216 637 248 596 c 0,13,14
 252 591 252 591 255 586 c 1,15,16
 258 590 258 590 262 594 c 0,17,18
 296 637 296 637 357 637 c 0,19,20
 416 637 416 637 438.5 602 c 128,-1,21
 461 567 461 567 462 506 c 1,22,-1
 282 508 l 1,23,24
 281 504 281 504 281 497 c 0,25,26
 281 453 281 453 297 428 c 0,27,28
 320 394 320 394 357 394 c 0,29,30
 410 394 410 394 444 433 c 1,31,32
 458 433 458 433 464 417 c 1,33,34
 444 391 444 391 412 375 c 128,-1,35
 380 359 380 359 346 359 c 0,36,37
 294 359 294 359 265 384 c 0,38,39
 255 393 255 393 248 403 c 1,40,-1
 246 400 l 1,41,42
 210 359 210 359 151 359 c 0,43,44
 93 359 93 359 58 399 c 128,-1,45
 23 439 23 439 23 491 c 0,46,47
 23 550 23 550 56.5 593.5 c 128,-1,48
 90 637 90 637 152 637 c 0,11,12
405 537 m 1,49,50
 405 612 405 612 348 612 c 0,51,52
 327 612 327 612 308 589 c 128,-1,53
 289 566 289 566 285 536 c 1,54,-1
 405 537 l 1,49,50
EndSplineSet
EndChar

StartChar: uniE1BD
Encoding: 57789 57789 17
Width: 301
Flags: W
LayerCount: 2
Fore
SplineSet
249 638 m 1,0,1
 263 638 263 638 267 625 c 1,2,-1
 246 599 l 1,3,4
 249 596 249 596 251 592 c 0,5,6
 266 572 266 572 273.5 547 c 128,-1,7
 281 522 281 522 281 494 c 0,8,9
 281 460 281 460 266 430 c 0,10,11
 256 411 256 411 241 396 c 2,12,-1
 239 394 l 2,13,14
 227 382 227 382 212 374 c 0,15,16
 185 359 185 359 151 359 c 0,17,18
 106 359 106 359 75 383 c 2,19,-1
 71 386 l 1,20,-1
 41 349 l 1,21,22
 34 349 34 349 29 353.5 c 128,-1,23
 24 358 24 358 23 365 c 1,24,-1
 54 403 l 1,25,26
 38 422 38 422 31 445 c 1,27,28
 23 467 23 467 23 491 c 0,29,30
 23 518 23 518 31 543.5 c 128,-1,31
 39 569 39 569 54 590.5 c 128,-1,32
 69 612 69 612 94.5 624.5 c 128,-1,33
 120 637 120 637 152 637 c 0,34,35
 185 637 185 637 210 625 c 0,36,37
 220 620 220 620 229 614 c 1,38,-1
 249 638 l 1,0,1
90 447 m 1,39,-1
 198 577 l 1,40,41
 190 590 190 590 181 598 c 1,42,43
 165 608 165 608 143 608 c 0,44,45
 128 608 128 608 116 602 c 1,46,47
 107 596 107 596 100 586 c 0,48,49
 82 559 82 559 82 503 c 0,50,51
 82 471 82 471 90 447 c 1,39,-1
101 422 m 1,52,53
 103 419 103 419 106 416 c 0,54,55
 129 384 129 384 162 384 c 0,56,57
 186 384 186 384 204 408 c 128,-1,58
 222 432 222 432 222 475 c 0,59,60
 222 521 222 521 209 554 c 1,61,-1
 101 422 l 1,52,53
EndSplineSet
EndChar

StartChar: uniE1BE
Encoding: 57790 57790 18
Width: 290
Flags: W
LayerCount: 2
Fore
SplineSet
21 491 m 0,0,1
 21 528 21 528 33.5 556 c 128,-1,2
 46 584 46 584 66.5 599.5 c 128,-1,3
 87 615 87 615 108 622 c 128,-1,4
 129 629 129 629 149 629 c 0,5,6
 173 629 173 629 194 621 c 1,7,8
 176 664 176 664 141 709 c 1,9,-1
 76 666 l 1,10,-1
 62 685 l 1,11,-1
 125 727 l 1,12,-1
 116 737 l 1,13,14
 97 756 97 756 75 772 c 1,15,-1
 84 785 l 1,16,17
 116 768 116 768 148 742 c 1,18,-1
 212 785 l 1,19,-1
 225 766 l 1,20,-1
 167 727 l 1,21,-1
 178 716 l 2,22,23
 268 626 268 626 268 508 c 0,24,25
 268 436 268 436 230.5 398 c 128,-1,26
 193 360 193 360 139 360 c 0,27,28
 86 360 86 360 53.5 400.5 c 128,-1,29
 21 441 21 441 21 491 c 0,0,1
149 382 m 0,30,31
 157 382 157 382 168 387 c 128,-1,32
 179 392 179 392 190 404 c 128,-1,33
 201 416 201 416 207.5 440.5 c 128,-1,34
 214 465 214 465 214 500 c 0,35,36
 214 545 214 545 204 580 c 1,37,38
 182 609 182 609 147 608 c 0,39,40
 130 608 130 608 114.5 598 c 128,-1,41
 99 588 99 588 91 571.5 c 128,-1,42
 83 555 83 555 79.5 537.5 c 128,-1,43
 76 520 76 520 76 501 c 0,44,45
 76 450 76 450 98.5 416 c 128,-1,46
 121 382 121 382 149 382 c 0,30,31
EndSplineSet
EndChar

StartChar: uniE1BF
Encoding: 57791 57791 19
Width: 300
Flags: W
LayerCount: 2
Fore
SplineSet
50 701 m 2,0,1
 50 735 50 735 44.5 742 c 128,-1,2
 39 749 39 749 18 750 c 0,3,4
 15 750 15 750 12 750 c 1,5,6
 6 756 6 756 8 769 c 1,7,8
 27 770 27 770 54 775 c 128,-1,9
 81 780 81 780 92 785 c 1,10,11
 100 785 100 785 100 779 c 0,12,13
 98 755 98 755 98 716 c 2,14,-1
 98 601 l 2,15,16
 98 591 98 591 100 590.5 c 128,-1,17
 102 590 102 590 108 597 c 0,18,19
 139 629 139 629 177 629 c 0,20,21
 219 629 219 629 249 592 c 128,-1,22
 279 555 279 555 279 507 c 0,23,24
 279 438 279 438 236 395 c 0,25,26
 201 360 201 360 152 360 c 1,27,28
 131 368 131 368 109 368 c 0,29,30
 108 368 108 368 106 369 c 128,-1,31
 104 370 104 370 103 370.5 c 128,-1,32
 102 371 102 371 101 371 c 128,-1,33
 100 371 100 371 99.5 370 c 128,-1,34
 99 369 99 369 98.5 366.5 c 128,-1,35
 98 364 98 364 98 360 c 2,36,-1
 98 305 l 2,37,38
 98 285 98 285 99 275.5 c 128,-1,39
 100 266 100 266 106.5 260.5 c 128,-1,40
 113 255 113 255 120.5 253.5 c 128,-1,41
 128 252 128 252 147 251 c 1,42,43
 149 249 149 249 149 241 c 0,44,45
 149 228 149 228 147 226 c 1,46,47
 95 227 95 227 74 227 c 0,48,49
 58 227 58 227 7 226 c 1,50,51
 5 228 5 228 5 238 c 128,-1,52
 5 248 5 248 7 251 c 1,53,54
 36 252 36 252 43 260.5 c 128,-1,55
 50 269 50 269 50 305 c 2,56,-1
 50 701 l 2,0,1
97 539 m 2,57,-1
 97 425 l 2,58,59
 97 412 97 412 99 406.5 c 128,-1,60
 101 401 101 401 107 396 c 0,61,62
 125 380 125 380 149 380 c 0,63,64
 172 380 172 380 188 389.5 c 128,-1,65
 204 399 204 399 212.5 416 c 128,-1,66
 221 433 221 433 224.5 451 c 128,-1,67
 228 469 228 469 228 491 c 0,68,69
 228 556 228 556 196 587 c 0,70,71
 182 601 182 601 162 602 c 0,72,73
 142 602 142 602 119.5 584.5 c 128,-1,74
 97 567 97 567 97 539 c 2,57,-1
EndSplineSet
EndChar

StartChar: dotlessj.superior
Encoding: 57797 57797 20
Width: 207
VWidth: 952
Flags: W
HStem: 263 19<48.7053 77.8634> 599 21<52.0015 90.8307> 682 57<87.7942 146.254>
VStem: 87 60<683.096 738.086> 96 49<300.871 597.995>
LayerCount: 2
Fore
SplineSet
96 549 m 2,0,1
 96 579 96 579 91.5 588.5 c 128,-1,2
 87 598 87 598 77 598 c 2,3,-1
 56 599 l 2,4,5
 52 599 52 599 52 602 c 2,6,-1
 51 620 l 1,7,8
 111 625 111 625 139 637 c 1,9,10
 147 637 147 637 147 630 c 0,11,12
 145 603 145 603 145 576 c 2,13,-1
 145 430 l 2,14,15
 145 365 145 365 139 337.5 c 128,-1,16
 133 310 133 310 113 288 c 0,17,18
 91 263 91 263 61 263 c 0,19,20
 39 263 39 263 19.5 272.5 c 128,-1,21
 0 282 0 282 0 296 c 0,22,23
 0 321 0 321 21 321 c 0,24,25
 40 321 40 321 48 292 c 0,26,27
 50 282 50 282 58 282 c 0,28,29
 79 282 79 282 87.5 310.5 c 128,-1,30
 96 339 96 339 96 410 c 2,31,-1
 96 549 l 2,0,1
EndSplineSet
EndChar

StartChar: uniE1C6
Encoding: 57798 57798 21
Width: 450
VWidth: 736
Flags: WO
HStem: 131.3 28.2<222.954 287.061> 155.3 16.2<395.667 432.762> 379.7 21<225.81 304.984> 448.7 10.2<405.241 416.971> 512.9 43.2<407.069 444.263> 521.9 18<285.203 323.691> 544.1 12<367.99 379.21>
VStem: 128.08 56.76<202.15 323.717> 330.04 52.14<185.663 361.224 390.501 518.831> 444.88 29.04<476.518 523.398>
LayerCount: 2
Fore
SplineSet
434.32 556.1 m 0,0,1
 452.14 556.1 452.14 556.1 463.03 542.9 c 128,-1,2
 473.92 529.7 473.92 529.7 473.92 512.3 c 0,3,4
 473.92 493.1 473.92 493.1 456.1 472.4 c 128,-1,5
 438.28 451.7 438.28 451.7 406.6 448.7 c 1,6,-1
 403.3 458.9 l 1,7,8
 422.44 462.5 422.44 462.5 433.66 475.4 c 128,-1,9
 444.88 488.3 444.88 488.3 444.88 500.3 c 0,10,11
 444.88 512.9 444.88 512.9 435.64 512.9 c 0,12,13
 405.28 512.9 405.28 512.9 405.28 535.7 c 0,14,15
 405.28 543.5 405.28 543.5 412.87 549.8 c 128,-1,16
 420.46 556.1 420.46 556.1 434.32 556.1 c 0,0,1
330.04 211.7 m 2,17,-1
 330.04 325.7 l 2,18,19
 330.04 339.5 330.04 339.5 328.06 345.2 c 128,-1,20
 326.08 350.9 326.08 350.9 318.82 358.1 c 0,21,22
 298.36 379.7 298.36 379.7 265.36 379.7 c 0,23,24
 225.76 379.7 225.76 379.7 203.98 349.7 c 1,25,26
 184.84 325.1 184.84 325.1 184.84 269.9 c 0,27,28
 184.84 217.1 184.84 217.1 206.62 188.3 c 128,-1,29
 228.4 159.5 228.4 159.5 257.44 159.5 c 0,30,31
 283.18 159.5 283.18 159.5 319.48 188.3 c 0,32,33
 330.04 196.7 330.04 196.7 330.04 211.7 c 2,17,-1
322.78 167.48 m 0,34,35
 274.391 131.3 274.391 131.3 240.28 131.3 c 0,36,37
 188.14 131.3 188.14 131.3 158.11 166.7 c 128,-1,38
 128.08 202.1 128.08 202.1 128.08 259.1 c 0,39,40
 128.08 323.3 128.08 323.3 173.62 364.7 c 1,41,42
 215.2 400.7 215.2 400.7 272.62 400.7 c 0,43,44
 282.52 400.7 282.52 400.7 294.4 398 c 128,-1,45
 306.28 395.3 306.28 395.3 314.86 392.9 c 128,-1,46
 323.44 390.5 323.44 390.5 324.1 390.5 c 0,47,48
 330.04 390.5 330.04 390.5 330.04 395.9 c 2,49,-1
 330.04 472.7 l 2,50,51
 330.04 491.9 330.04 491.9 329.05 501.5 c 128,-1,52
 328.06 511.1 328.06 511.1 320.8 515.6 c 128,-1,53
 313.54 520.1 313.54 520.1 309.58 520.4 c 128,-1,54
 305.62 520.7 305.62 520.7 287.8 521.9 c 1,55,56
 280.54 528.5 280.54 528.5 283.84 539.9 c 1,57,58
 342.58 544.1 342.58 544.1 376.24 556.1 c 1,59,60
 384.82 556.1 384.82 556.1 384.82 550.1 c 0,61,62
 382.18 526.1 382.18 526.1 382.18 487.1 c 2,63,-1
 382.18 215.3 l 2,64,65
 382.18 191.9 382.18 191.9 391.09 182.9 c 128,-1,66
 400 173.9 400 173.9 430.36 171.5 c 1,67,68
 433.66 168.5 433.66 168.5 433.66 163.1 c 128,-1,69
 433.66 157.7 433.66 157.7 430.36 155.3 c 1,70,71
 374.92 149.3 374.92 149.3 350.5 131.3 c 1,72,73
 343.24 129.5 343.24 129.5 337.96 131.3 c 1,74,75
 330.7 152.3 330.7 152.3 330.7 166.7 c 0,76,77
 330.361 169.6 330.361 169.6 327.928 169.543 c 128,-1,78
 325.494 169.485 325.494 169.485 322.78 167.48 c 0,34,35
EndSplineSet
EndChar

StartChar: uniE1C7
Encoding: 57799 57799 22
Width: 425
VWidth: 736
Flags: WO
HStem: 131.3 28.2<212.584 276.691> 155.3 16.2<385.297 422.392> 379.7 21<215.44 294.614> 457.1 23.4<217.37 412.73> 521.9 18<274.833 313.321> 544.1 12<357.62 368.84>
VStem: 117.71 56.76<202.15 323.717> 319.67 52.14<185.663 361.224 390.501 518.831>
LayerCount: 2
Fore
SplineSet
412.73 480.5 m 1,0,-1
 413.39 457.1 l 1,1,-1
 371.81 457.1 l 1,2,3
 319.67 457.1 l 1,4,-1
 217.37 457.1 l 1,5,-1
 217.37 480.5 l 1,6,-1
 319.604 480.5 l 1,7,8
 319.604 480.5 319.604 480.5 412.73 480.5 c 1,0,-1
EndSplineSet
EndChar

StartChar: uniE1C8
Encoding: 57800 57800 23
Width: 249
VWidth: 738
Flags: WO
HStem: 138 19.8<71.2625 112.347 181.812 222.898> 450.6 10.2<204.131 215.861> 514.8 43.2<205.959 243.153> 523.8 18<76.1732 114.661> 546 12<158.96 170.18>
VStem: 121.01 52.14<163.177 520.731> 243.77 29.04<478.418 525.298>
LayerCount: 2
Fore
SplineSet
233.21 558 m 0,0,1
 251.03 558 251.03 558 261.92 544.8 c 128,-1,2
 272.81 531.6 272.81 531.6 272.81 514.2 c 0,3,4
 272.81 495 272.81 495 254.99 474.3 c 128,-1,5
 237.17 453.6 237.17 453.6 205.49 450.6 c 1,6,-1
 202.19 460.8 l 1,7,8
 221.33 464.4 221.33 464.4 232.55 477.3 c 128,-1,9
 243.77 490.2 243.77 490.2 243.77 502.2 c 0,10,11
 243.77 514.8 243.77 514.8 234.53 514.8 c 0,12,13
 204.17 514.8 204.17 514.8 204.17 537.6 c 0,14,15
 204.17 545.4 204.17 545.4 211.76 551.7 c 128,-1,16
 219.35 558 219.35 558 233.21 558 c 0,0,1
121.01 212.4 m 2,17,-1
 121.01 474.6 l 2,18,19
 121.01 493.8 121.01 493.8 120.02 503.4 c 128,-1,20
 119.03 513 119.03 513 111.77 517.5 c 128,-1,21
 104.51 522 104.51 522 100.55 522.3 c 128,-1,22
 96.5898 522.6 96.5898 522.6 78.7695 523.8 c 1,23,24
 71.5098 530.4 71.5098 530.4 74.8096 541.8 c 1,25,26
 133.55 546 133.55 546 167.21 558 c 1,27,28
 175.79 558 175.79 558 175.79 552 c 0,29,30
 173.15 528 173.15 528 173.15 489 c 2,31,-1
 173.15 212.4 l 2,32,33
 173.15 176.4 173.15 176.4 181.4 167.7 c 128,-1,34
 189.65 159 189.65 159 220.67 157.8 c 1,35,36
 223.31 154.8 223.31 154.8 223.31 147.6 c 128,-1,37
 223.31 140.4 223.31 140.4 220.67 138 c 1,38,39
 163.91 139.2 163.91 139.2 147.41 139.2 c 0,40,41
 128.93 139.2 128.93 139.2 73.4902 138 c 1,42,43
 70.1904 140.4 70.1904 140.4 70.1904 147.6 c 128,-1,44
 70.1904 154.8 70.1904 154.8 73.4902 157.8 c 1,45,46
 104.51 159 104.51 159 112.76 167.7 c 128,-1,47
 121.01 176.4 121.01 176.4 121.01 212.4 c 2,17,-1
EndSplineSet
EndChar

StartChar: uniE1C9
Encoding: 57801 57801 24
Width: 219
VWidth: 738
Flags: HWO
HStem: 138 19.8<58.1725 99.2575 168.723 209.808> 390 12G<183.093 213.08> 523.8 18<63.0832 101.571> 546 12<145.87 157.09>
VStem: 49.18 167.64 107.92 52.14<163.177 520.731>
DStem2: 49.18 318.6 60.4 301.2 0.882409 0.470483<0 176.933>
LayerCount: 2
Fore
SplineSet
205.6 402 m 1,0,-1
 216.82 384 l 1,1,-1
 160.06 353.94 l 1,2,-1
 160.06 212.4 l 2,3,4
 160.06 176.4 160.06 176.4 168.31 167.7 c 128,-1,5
 176.56 159 176.56 159 207.58 157.8 c 1,6,7
 210.22 154.8 210.22 154.8 210.22 147.6 c 128,-1,8
 210.22 140.4 210.22 140.4 207.58 138 c 1,9,10
 150.82 139.2 150.82 139.2 134.32 139.2 c 0,11,12
 115.84 139.2 115.84 139.2 60.4004 138 c 1,13,14
 57.0996 140.4 57.0996 140.4 57.0996 147.6 c 128,-1,15
 57.0996 154.8 57.0996 154.8 60.4004 157.8 c 1,16,17
 91.4199 159 91.4199 159 99.6699 167.7 c 128,-1,18
 107.92 176.4 107.92 176.4 107.92 212.4 c 2,19,-1
 107.92 326.34 l 1,20,-1
 60.4004 301.2 l 1,21,-1
 49.1797 318.6 l 1,22,-1
 107.92 349.92 l 1,23,24
 160.06 542.261 160.06 542.261 160.06 377.7 c 1,25,-1
 205.6 402 l 1,0,-1
EndSplineSet
EndChar

StartChar: uniE1CA
Encoding: 57802 57802 25
Width: 316
VWidth: 737
Flags: WO
HStem: 131.6 33<164.25 231.797> 371.6 23.4<86.3779 128.61 180.75 265.23> 449 10.2<255.951 267.681> 513.2 43.2<257.779 294.973>
VStem: 128.61 52.14<166.653 371.6 395.062 473.328> 295.59 29.04<476.818 523.698>
LayerCount: 2
Fore
SplineSet
285.03 556.4 m 0,0,1
 302.85 556.4 302.85 556.4 313.74 543.2 c 128,-1,2
 324.63 530 324.63 530 324.63 512.6 c 0,3,4
 324.63 493.4 324.63 493.4 306.81 472.7 c 128,-1,5
 288.99 452 288.99 452 257.31 449 c 1,6,-1
 254.01 459.2 l 1,7,8
 273.15 462.8 273.15 462.8 284.37 475.7 c 128,-1,9
 295.59 488.6 295.59 488.6 295.59 500.6 c 0,10,11
 295.59 513.2 295.59 513.2 286.35 513.2 c 0,12,13
 255.99 513.2 255.99 513.2 255.99 536 c 0,14,15
 255.99 543.8 255.99 543.8 263.58 550.1 c 128,-1,16
 271.17 556.4 271.17 556.4 285.03 556.4 c 0,0,1
98.25 395 m 2,17,-1
 128.61 395.06 l 1,18,19
 128.61 417.86 128.61 417.86 128.301 432.812 c 128,-1,20
 127.991 447.763 127.991 447.763 127.62 452.379 c 128,-1,21
 127.249 456.996 127.249 456.996 126.939 459.948 c 128,-1,22
 126.63 462.9 126.63 462.9 126.63 464.6 c 0,23,24
 126.63 467.303 126.63 467.303 129.999 469.039 c 128,-1,25
 133.368 470.775 133.368 470.775 140.861 472.781 c 128,-1,26
 148.354 474.786 148.354 474.786 151.71 476.06 c 0,27,28
 155.541 477.524 155.541 477.524 161.696 480.401 c 128,-1,29
 167.852 483.278 167.852 483.278 172.018 484.979 c 128,-1,30
 176.184 486.68 176.184 486.68 178.308 486.68 c 0,31,32
 183.39 486.68 183.39 486.68 183.39 481.4 c 0,33,34
 180.75 457.4 180.75 457.4 180.75 418.4 c 2,35,-1
 180.75 395 l 1,36,-1
 259.95 395 l 2,37,38
 265.23 395 265.23 395 265.23 391.4 c 2,39,-1
 265.23 379.4 l 2,40,41
 265.23 371.6 265.23 371.6 249.39 371.6 c 2,42,-1
 180.75 371.6 l 1,43,-1
 180.75 219.8 l 2,44,45
 180.75 190.4 180.75 190.4 185.37 177.5 c 128,-1,46
 189.99 164.6 189.99 164.6 202.53 164.6 c 0,47,48
 232.89 164.6 232.89 164.6 256.65 181.4 c 1,49,50
 266.55 180.8 266.55 180.8 268.53 171.2 c 1,51,52
 229.59 131.6 229.59 131.6 179.43 131.6 c 0,53,54
 128.61 131.6 128.61 131.6 128.61 191 c 2,55,-1
 128.61 371.6 l 1,56,-1
 89.6699 371.6 l 2,57,58
 86.3701 371.6 86.3701 371.6 86.3701 375.2 c 2,59,-1
 86.3701 383 l 2,60,61
 86.3701 395 86.3701 395 98.25 395 c 2,17,-1
EndSplineSet
EndChar

StartChar: uniE1C0
Encoding: 57792 57792 26
Width: 329
VWidth: 917
Flags: WO
HStem: 362 36<100.004 176.766> 378 22<265.394 300.223> 605 26<112.946 180.68> 701 21<164.001 202.831>
VStem: 24 54<414.8 571.488> 209 48<403.141 404.348 425.3 587.472 605 700.094>
LayerCount: 2
Fore
SplineSet
314.32 736.1 m 0,0,1
 332.14 736.1 332.14 736.1 343.03 722.9 c 128,-1,2
 353.92 709.7 353.92 709.7 353.92 692.3 c 0,3,4
 353.92 673.1 353.92 673.1 336.1 652.4 c 128,-1,5
 318.28 631.7 318.28 631.7 286.6 628.7 c 1,6,-1
 283.3 638.9 l 1,7,8
 302.44 642.5 302.44 642.5 313.66 655.4 c 128,-1,9
 324.88 668.3 324.88 668.3 324.88 680.3 c 0,10,11
 324.88 692.9 324.88 692.9 315.64 692.9 c 0,12,13
 285.28 692.9 285.28 692.9 285.28 715.7 c 0,14,15
 285.28 723.5 285.28 723.5 292.87 729.8 c 128,-1,16
 300.46 736.1 300.46 736.1 314.32 736.1 c 0,0,1
209 463 m 1,17,-1
 209 566 l 1,18,19
 176 605 176 605 145 605 c 0,20,21
 118 605 118 605 98 576 c 128,-1,22
 78 547 78 547 78 494 c 0,23,24
 78 398 78 398 139 398 c 0,25,26
 155 398 155 398 178.5 421 c 128,-1,27
 202 444 202 444 209 463 c 1,17,-1
204 413 m 0,28,29
 192 390 192 390 167.5 376 c 128,-1,30
 143 362 143 362 123 362 c 0,31,32
 77 362 77 362 50.5 394.5 c 128,-1,33
 24 427 24 427 24 479 c 0,34,35
 24 543 24 543 54.5 587 c 128,-1,36
 85 631 85 631 140 631 c 0,37,38
 181 631 181 631 209 605 c 1,39,-1
 209 651 l 2,40,41
 209 681 209 681 204.5 690.5 c 128,-1,42
 200 700 200 700 189 700 c 2,43,-1
 168 701 l 2,44,45
 164 701 164 701 164 704 c 2,46,-1
 163 722 l 1,47,48
 223 727 223 727 251 739 c 1,49,50
 259 739 259 739 259 732 c 0,51,52
 257 706 257 706 257 664 c 2,53,-1
 257 448 l 2,54,55
 257 419 257 419 265 410.5 c 128,-1,56
 273 402 273 402 299 400 c 1,57,58
 303 385 303 385 301 378 c 1,59,60
 248 371 248 371 221 358 c 1,61,62
 216 358 216 358 214 364 c 0,63,64
 209 376 209 376 209 412 c 0,65,66
 209 422 209 422 204 413 c 0,28,29
EndSplineSet
EndChar

StartChar: uniE1C1
Encoding: 57793 57793 27
Width: 315
VWidth: 917
Flags: HWO
HStem: 362 36<100.004 176.766> 378 22<265.394 300.223> 605 26<112.946 180.68> 701 21<164.001 202.831>
VStem: 24 54<414.8 571.488> 209 48<403.141 404.348 425.3 587.472 605 700.094>
LayerCount: 2
Fore
SplineSet
204 413 m 0,0,1
 192 390 192 390 167.5 376 c 128,-1,2
 143 362 143 362 123 362 c 0,3,4
 77 362 77 362 50.5 394.5 c 128,-1,5
 24 427 24 427 24 479 c 0,6,7
 24 543 24 543 54.5 587 c 128,-1,8
 85 631 85 631 140 631 c 0,9,10
 181 631 181 631 209 605 c 1,11,-1
 209 651 l 2,12,13
 209 654.164 209 654.164 208.95 657.1 c 1,14,-1
 117.37 657.1 l 1,15,-1
 117.37 680.5 l 1,16,-1
 207.241 680.5 l 1,17,18
 206.186 686.94 206.186 686.94 204.5 690.5 c 0,19,20
 200 700 200 700 189 700 c 2,21,-1
 168 701 l 2,22,23
 164 701 164 701 164 704 c 2,24,-1
 163 722 l 1,25,26
 223 727 223 727 251 739 c 1,27,28
 259 739 259 739 259 732 c 0,29,30
 257.409 711.314 257.409 711.314 257.084 680.5 c 1,31,-1
 312.73 680.5 l 1,32,-1
 313.39 657.1 l 1,33,-1
 271.81 657.1 l 1,34,-1
 257 657.1 l 1,35,-1
 257 448 l 2,36,37
 257 419 257 419 265 410.5 c 128,-1,38
 273 402 273 402 299 400 c 1,39,40
 303 385 303 385 301 378 c 1,41,42
 248 371 248 371 221 358 c 1,43,44
 216 358 216 358 214 364 c 0,45,46
 209 376 209 376 209 412 c 0,47,48
 209 422 209 422 204 413 c 0,0,1
209 463 m 1,49,-1
 209 566 l 1,50,51
 176 605 176 605 145 605 c 0,52,53
 118 605 118 605 98 576 c 128,-1,54
 78 547 78 547 78 494 c 0,55,56
 78 398 78 398 139 398 c 0,57,58
 155 398 155 398 178.5 421 c 128,-1,59
 202 444 202 444 209 463 c 1,49,-1
EndSplineSet
EndChar

StartChar: uniE1C2
Encoding: 57794 57794 28
Width: 175
VWidth: 917
Flags: HWO
HStem: 363 22<12.5742 48.9205 110.571 146.707> 701 21<12.0981 49.0858>
VStem: 55 49<386.834 699.784>
LayerCount: 2
Fore
SplineSet
163.21 738 m 0,0,1
 181.03 738 181.03 738 191.92 724.8 c 128,-1,2
 202.81 711.6 202.81 711.6 202.81 694.2 c 0,3,4
 202.81 675 202.81 675 184.99 654.3 c 128,-1,5
 167.17 633.6 167.17 633.6 135.49 630.6 c 1,6,-1
 132.19 640.8 l 1,7,8
 151.33 644.4 151.33 644.4 162.55 657.3 c 128,-1,9
 173.77 670.2 173.77 670.2 173.77 682.2 c 0,10,11
 173.77 694.8 173.77 694.8 164.53 694.8 c 0,12,13
 134.17 694.8 134.17 694.8 134.17 717.6 c 0,14,15
 134.17 725.4 134.17 725.4 141.76 731.7 c 128,-1,16
 149.35 738 149.35 738 163.21 738 c 0,0,1
55 440 m 2,17,-1
 55 651 l 2,18,19
 55 685 55 685 49 692.5 c 128,-1,20
 43 700 43 700 22.068 700.612 c 0,21,22
 17 701 17 701 15 701 c 1,23,24
 9 707 9 707 12 722 c 1,25,26
 64 726 64 726 98 739 c 1,27,28
 106 739 106 739 106 733 c 0,29,30
 104 707 104 707 104 667 c 2,31,-1
 104 440 l 2,32,33
 104 403 104 403 111 395 c 128,-1,34
 118 387 118 387 144 385 c 1,35,36
 147 382 147 382 147 374 c 128,-1,37
 147 366 147 366 144 363 c 1,38,39
 122 364 122 364 80 364 c 0,40,41
 36 364 36 364 15 363 c 1,42,43
 12 366 12 366 12 373 c 128,-1,44
 12 380 12 380 15 383 c 1,45,46
 41 385 41 385 48 394 c 128,-1,47
 55 403 55 403 55 440 c 2,17,-1
EndSplineSet
EndChar

StartChar: uniE1C3
Encoding: 57795 57795 29
Width: 161
VWidth: 917
Flags: HWO
HStem: 363 22<12.5742 48.9205 110.571 146.707> 701 21<12.0981 49.0858>
VStem: 55 49<386.834 699.784>
LayerCount: 2
Fore
SplineSet
150.6 612 m 1,0,-1
 161.82 594 l 1,1,-1
 105.06 563.94 l 1,2,-1
 104 563.38 l 1,3,-1
 104 440 l 2,4,5
 104 403 104 403 111 395 c 128,-1,6
 118 387 118 387 144 385 c 1,7,8
 147 382 147 382 147 374 c 128,-1,9
 147 366 147 366 144 363 c 1,10,11
 122 364 122 364 80 364 c 0,12,13
 36 364 36 364 15 363 c 1,14,15
 12 366 12 366 12 373 c 128,-1,16
 12 380 12 380 15 383 c 1,17,18
 41 385 41 385 48 394 c 128,-1,19
 55 403 55 403 55 440 c 2,20,-1
 55 537.441 l 1,21,-1
 52.9199 536.34 l 1,22,-1
 5.40039 511.2 l 1,23,-1
 -5.82031 528.6 l 1,24,-1
 52.9199 559.92 l 1,25,-1
 55 561.029 l 1,26,-1
 55 651 l 2,27,28
 55 685 55 685 49 692.5 c 128,-1,29
 43 700 43 700 22.068 700.612 c 0,30,31
 17 701 17 701 15 701 c 1,32,33
 9 707 9 707 12 722 c 1,34,35
 64 726 64 726 98 739 c 1,36,37
 106 739 106 739 106 733 c 0,38,39
 104 707 104 707 104 667 c 2,40,-1
 104 587.154 l 1,41,-1
 150.6 612 l 1,0,-1
EndSplineSet
EndChar

StartChar: uniE1C4
Encoding: 57796 57796 30
Width: 216
VWidth: 999
Flags: HWO
HStem: 358 40<93.5 176.891> 602 29<16.0677 54.8889 106 188.963>
VStem: 58 48<398.655 602> 68 38<639.467 713>
LayerCount: 2
Fore
SplineSet
200.03 776.4 m 0,0,1
 217.85 776.4 217.85 776.4 228.74 763.2 c 128,-1,2
 239.63 750 239.63 750 239.63 732.6 c 0,3,4
 239.63 713.4 239.63 713.4 221.81 692.7 c 128,-1,5
 203.99 672 203.99 672 172.31 669 c 1,6,-1
 169.01 679.2 l 1,7,8
 188.15 682.8 188.15 682.8 199.37 695.7 c 128,-1,9
 210.59 708.6 210.59 708.6 210.59 720.6 c 0,10,11
 210.59 733.2 210.59 733.2 201.35 733.2 c 0,12,13
 170.99 733.2 170.99 733.2 170.99 756 c 0,14,15
 170.99 763.8 170.99 763.8 178.58 770.1 c 128,-1,16
 186.17 776.4 186.17 776.4 200.03 776.4 c 0,0,1
106 602 m 1,17,-1
 106 454 l 2,18,19
 106 398 106 398 127 398 c 0,20,21
 163 398 163 398 179 410 c 1,22,-1
 195 393 l 1,23,24
 161 358 161 358 108 358 c 0,25,26
 58 358 58 358 58 419 c 2,27,-1
 58 602 l 1,28,-1
 18 602 l 2,29,30
 15 602 15 602 15 604 c 2,31,-1
 17 628 l 2,32,33
 17 631 17 631 20 631 c 0,34,35
 47 631 47 631 57.5 648 c 128,-1,36
 68 665 68 665 68 702 c 2,37,-1
 68 713 l 1,38,-1
 106 726 l 1,39,-1
 106 631 l 1,40,-1
 186 631 l 2,41,42
 191 631 191 631 191 627 c 2,43,-1
 189 609 l 2,44,45
 188 602 188 602 175 602 c 2,46,-1
 106 602 l 1,17,-1
EndSplineSet
EndChar
